{"title":"Tom And Jerry Mouse Trouble 2014 DVDRIP XVID AC3 ACAB","uid":10228248,"size":1672263547,"categoryP":"video","categoryS":"other","magnet":"?xt=urn:btih:2ae015a28b8218daa120c6aca5e65608e9edae0f&amp;dn=Tom+And+Jerry+Mouse+Trouble+2014+DVDRIP+XVID+AC3+ACAB&amp;tr=udp%3A%2F%2Ftracker.openbittorrent.com%3A80&amp;tr=udp%3A%2F%2Fopen.demonii.com%3A1337&amp;tr=udp%3A%2F%2Ftracker.coppersurfer.tk%3A6969&amp;tr=udp%3A%2F%2Fexodus.desync.com%3A6969","seeders":0,"leechers":1,"uploader":"Xetron","files":5,"time":1401114680,"description":"Tom And Jerry Mouse Trouble 2014 DiSC 1 DVDRIP XVID AC3 ACAB\n\nFormat                                   : AVI\nFormat/Info                              : Audio Video Interleave\nFile size                                : 760 MiB\nDuration                                 : 49mn 24s\nOverall bit rate                         : 2 150 Kbps\nWriting library                          : VirtualDub build 30091/release\n\nVideo\nID                                       : 0\nFormat                                   : MPEG-4 Visual\nFormat profile                           : Advanced Simple@L5\nFormat settings, BVOP                    : 2\nFormat settings, QPel                    : No\nFormat settings, GMC                     : No warppoints\nFormat settings, Matrix                  : Default (H.263)\nMuxing mode                              : Packed bitstream\nCodec ID                                 : XVID\nCodec ID/Hint                            : XviD\nDuration                                 : 49mn 24s\nBit rate                                 : 1 948 Kbps\nWidth                                    : 640 pixels\nHeight                                   : 480 pixels\nDisplay aspect ratio                     : 4:3\nFrame rate                               : 23.976 fps\nColor space                              : YUV\nChroma subsampling                       : 4:2:0\nBit depth                                : 8 bits\nScan type                                : Progressive\nCompression mode                         : Lossy\nBits/(Pixel*Frame)                       : 0.265\nStream size                              : 688 MiB (91%)\nWriting library                          : XviD 1.2.1 (UTC 2008-12-04)\n\nAudio\nID                                       : 1\nFormat                                   : AC-3\nFormat/Info                              : Audio Coding 3\nMode extension                           : CM (complete main)\nFormat settings, Endianness              : Big\nCodec ID                                 : 2000\nDuration                                 : 49mn 24s\nBit rate mode                            : Constant\nBit rate                                 : 192 Kbps\nChannel(s)                               : 2 channels\nChannel(s)_Original                      : 1 channel\nChannel positions                        : Front: C\nSampling rate                            : 48.0 KHz\nBit depth                                : 16 bits\nCompression mode                         : Lossy\nDelay relative to video                  : 12ms\nStream size                              : 67.8 MiB (9%)","torrent":{"xt":"urn:btih:2ae015a28b8218daa120c6aca5e65608e9edae0f","amp;dn":"Tom+And+Jerry+Mouse+Trouble+2014+DVDRIP+XVID+AC3+ACAB","amp;tr":["udp%3A%2F%2Ftracker.openbittorrent.com%3A80","udp%3A%2F%2Fopen.demonii.com%3A1337","udp%3A%2F%2Ftracker.coppersurfer.tk%3A6969","udp%3A%2F%2Fexodus.desync.com%3A6969"],"infoHash":"2ae015a28b8218daa120c6aca5e65608e9edae0f","infoHashBuffer":{"type":"Buffer","data":[42,224,21,162,139,130,24,218,161,32,198,172,165,230,86,8,233,237,174,15]},"announce":[],"urlList":[]}}